<svg width="195" height="173" viewBox="0 0 195 173" fill="none" xmlns="http://www.w3.org/2000/svg">
<path d="M189.271 172.231H88.5335C87.9491 172.231 87.3703 172.142 86.8132 171.966L86.754 171.942C55.2108 156.266 28.1665 147.71 4.07584 145.785L3.98418 145.767C1.60104 145.013 0 142.827 0 140.328V5.70972C0 3.87155 0.850586 2.19415 2.33337 1.10785C3.81636 0.0215511 5.67186 -0.283266 7.42521 0.27056L87.062 25.46C87.5389 25.6109 88.0341 25.6872 88.5335 25.6872H189.271C192.416 25.6872 194.975 28.2464 194.975 31.3919V166.527C194.975 169.672 192.416 172.231 189.271 172.231ZM87.0918 171.188C87.5592 171.333 88.0441 171.406 88.5335 171.406H189.271C191.961 171.406 194.15 169.217 194.15 166.527V31.3919C194.15 28.7013 191.961 26.5124 189.271 26.5124H88.5335C87.9495 26.5124 87.3709 26.4232 86.8132 26.2469L7.1762 1.05748C5.67669 0.582833 4.08954 0.844335 2.82112 1.77349C1.55269 2.70285 0.825202 4.13748 0.825202 5.70972V140.328C0.825202 142.45 2.17502 144.308 4.18947 144.966C28.3673 146.907 55.4863 155.484 87.0918 171.188Z" fill="#3F3D56"/>
<path d="M91.2235 166.118C118.69 156.399 149.332 157.514 181.885 165.149C185.972 166.107 189.89 163.03 189.89 158.833V35.8308C189.89 32.8439 187.853 30.2323 184.952 29.5227C150.612 21.1252 118.536 19.5802 90.2686 29.5589C88.1978 30.2899 85.8991 29.8938 84.1517 28.5636C60.3317 10.4314 35.9535 1.34006 10.8475 4.03951C7.56311 4.39265 5.08582 7.19166 5.08582 10.4949V134.838C5.08582 138.168 7.60488 140.952 10.9164 141.296C37.9392 144.106 62.7703 152.624 85.8632 165.668C87.4983 166.592 89.4531 166.745 91.2235 166.118Z" fill="#F2F2F2"/>
<path d="M90.3415 159.221C88.4709 159.221 86.6285 158.706 85.0049 157.698C65.6108 145.654 44.4813 138.617 22.2039 136.785C16.9811 136.355 12.8898 131.9 12.8898 126.642V20.4328C12.8898 14.9815 17.1173 10.5149 22.5144 10.264C38.7339 9.50773 58.428 16.7409 84.4891 33.0191C86.6935 34.3957 89.3742 34.8045 91.8442 34.1421C116.612 27.4937 143.46 27.2995 173.924 33.5484C178.653 34.5186 182.086 38.7164 182.086 43.53V147.2C182.086 150.329 180.679 153.235 178.225 155.172C175.754 157.125 172.574 157.824 169.5 157.093C140.681 150.234 115.935 150.729 93.8458 158.609C92.6986 159.018 91.5142 159.221 90.3415 159.221ZM24.8298 11.036C24.062 11.036 23.3047 11.0534 22.5526 11.0884C17.597 11.3187 13.715 15.4232 13.715 20.4328V126.642C13.715 131.474 17.4735 135.567 22.2716 135.962C44.6808 137.806 65.9338 144.883 85.4402 156.997C87.8673 158.505 90.83 158.809 93.5685 157.832C115.812 149.897 140.712 149.392 169.691 156.29C172.518 156.963 175.441 156.32 177.714 154.525C179.968 152.744 181.261 150.075 181.261 147.2V43.53C181.261 39.1064 178.105 35.2485 173.758 34.3567C143.423 28.1338 116.699 28.3244 92.0582 34.9391C89.3672 35.6607 86.4498 35.2165 84.0519 33.719C59.3545 18.2926 40.4418 11.036 24.8298 11.036Z" fill="white"/>
<path d="M88.4678 34.7584L87.6426 34.766L88.7908 159.032L89.616 159.024L88.4678 34.7584Z" fill="white"/>
<path d="M20.9343 26.5578L20.6751 27.3411L78.453 46.4587L78.7121 45.6754L20.9343 26.5578Z" fill="#3F3D56"/>
<path d="M20.9343 41.852L20.6751 42.6353L78.453 61.7529L78.7121 60.9696L20.9343 41.852Z" fill="#3F3D56"/>
<path d="M20.9343 57.1459L20.6751 57.9292L78.453 77.0468L78.7121 76.2636L20.9343 57.1459Z" fill="#3F3D56"/>
<path d="M20.9343 72.4401L20.6751 73.2234L78.453 92.341L78.7121 91.5578L20.9343 72.4401Z" fill="#3F3D56"/>
<path d="M171.622 46.5043H102.373V47.3295H171.622V46.5043Z" fill="#3F3D56"/>
<path d="M171.622 60.9486H102.373V61.7738H171.622V60.9486Z" fill="#3F3D56"/>
<path d="M171.622 75.3931H102.373V76.2183H171.622V75.3931Z" fill="#3F3D56"/>
<path d="M171.622 89.8375H102.373V90.6627H171.622V89.8375Z" fill="#3F3D56"/>
<path d="M171.622 104.282H102.373V105.107H171.622V104.282Z" fill="#3F3D56"/>
<path d="M171.622 118.726H102.373V119.552H171.622V118.726Z" fill="#3F3D56"/>
</svg>
