<svg width="36" height="29" viewBox="0 0 36 29" fill="none" xmlns="http://www.w3.org/2000/svg">
<path d="M5.828 23.12V20.048H9.932C10.668 20.048 11.22 19.856 11.588 19.472C11.956 19.088 12.14 18.544 12.14 17.84C12.14 17.136 11.956 16.6 11.588 16.232C11.22 15.848 10.668 15.656 9.932 15.656H5.828V13.28H9.74C10.956 13.28 12.036 13.432 12.98 13.736C13.924 14.024 14.668 14.496 15.212 15.152C15.756 15.808 16.028 16.696 16.028 17.816V18.152C16.028 19.192 15.788 20.088 15.308 20.84C14.828 21.576 14.124 22.144 13.196 22.544C12.268 22.928 11.116 23.12 9.74 23.12H5.828ZM2.468 23.12V5.336H6.308V23.12H2.468ZM5.828 15.032V12.68H9.284C10.036 12.68 10.58 12.488 10.916 12.104C11.252 11.72 11.42 11.208 11.42 10.568C11.42 9.896 11.252 9.368 10.916 8.984C10.58 8.6 10.036 8.408 9.284 8.408H5.828V5.336H9.044C11.06 5.336 12.604 5.76 13.676 6.608C14.764 7.456 15.308 8.664 15.308 10.232V10.592C15.308 11.68 15.028 12.552 14.468 13.208C13.924 13.864 13.18 14.336 12.236 14.624C11.308 14.896 10.244 15.032 9.044 15.032H5.828ZM17.9092 23L24.3652 5.48H27.6292L34.3012 23H32.4292L26.2132 6.632L27.1972 7.136H24.6772L25.7092 6.632L19.7332 23H17.9092ZM21.3652 17.432L21.9652 15.776H30.1012L30.7252 17.432H21.3652Z" fill="#666666"/>
</svg>
